<svg xmlns="http://www.w3.org/2000/svg" version="1.1" xmlns:xlink="http://www.w3.org/1999/xlink" xmlns:svgjs="http://svgjs.dev/svgjs" width="1000" height="1000" viewBox="0 0 1000 1000"><rect width="1000" height="1000" fill="#ffffff"></rect><g transform="matrix(0.7,0,0,0.7,149.57575757575756,282.1265587044535)"><svg viewBox="0 0 396 247" data-background-color="#ffffff" preserveAspectRatio="xMidYMid meet" height="623" width="1000" xmlns="http://www.w3.org/2000/svg" xmlns:xlink="http://www.w3.org/1999/xlink"><g id="tight-bounds" transform="matrix(1,0,0,1,0.2400000000000091,-0.09999999999999432)"><svg viewBox="0 0 395.52 247.2" height="247.2" width="395.52"><g><svg></svg></g><g><svg viewBox="0 0 395.52 247.2" height="247.2" width="395.52"><g transform="matrix(1,0,0,1,75.54432000000001,105.92461850496602)"><svg viewBox="0 0 244.43135999999996 35.350762990067956" height="35.350762990067956" width="244.43135999999996"><g><svg viewBox="0 0 244.43135999999996 35.350762990067956" height="35.350762990067956" width="244.43135999999996"><g><svg viewBox="0 0 244.43135999999996 35.350762990067956" height="35.350762990067956" width="244.43135999999996"><g><svg viewBox="0 0 244.43135999999996 35.350762990067956" height="35.350762990067956" width="244.43135999999996"><g id="textblocktransform"><svg viewBox="0 0 244.43135999999996 35.350762990067956" height="35.350762990067956" width="244.43135999999996" id="textblock"><g><svg viewBox="0 0 244.43135999999996 35.350762990067956" height="35.350762990067956" width="244.43135999999996"><g transform="matrix(1,0,0,1,0,0)"><svg width="244.43135999999996" viewBox="2.4000000953674316 -40.95000076293945 286.92999267578125 41.5" height="35.350762990067956" data-palette-color="#096a2e"><path d="M6.55-2.95L6.55-34.05 2.65-34.65 2.65-37.15 9.3-37.15Q11.1-37.15 12.85-37.3L12.85-37.3Q15.55-37.5 17.95-37.5L17.95-37.5Q25.2-37.45 28.2-34.8 31.2-32.15 31.2-26.8L31.2-26.8Q31.2-22.8 29.35-19.85 27.5-16.9 24.23-15.35 20.95-13.8 16.7-13.8L16.7-13.8Q15.25-13.8 13.75-13.88 12.25-13.95 11.9-14L11.9-14 11.9-3 18.75-2.45 18.75 0 2.4 0 2.4-2.45 6.55-2.95ZM11.9-16.75Q13.3-16.5 16.7-16.5L16.7-16.5Q20.65-16.5 23.13-18.9 25.6-21.3 25.6-26.75L25.6-26.75Q25.6-31.05 23.45-32.93 21.3-34.8 16.75-34.8L16.75-34.8Q15.15-34.8 13.35-34.6L13.35-34.6Q12.25-34.5 11.9-34.5L11.9-34.5 11.9-16.75ZM34.7-7.5Q34.7-12.2 39.4-14.43 44.1-16.65 51.3-16.8L51.3-16.8 51.3-18.2Q51.3-20.55 50.8-21.9 50.3-23.25 49.07-23.88 47.85-24.5 45.6-24.5L45.6-24.5Q43.05-24.5 41.02-23.78 39-23.05 37-22L37-22 35.75-24.6Q36.4-25.15 38.15-26.05 39.9-26.95 42.2-27.65 44.5-28.35 46.8-28.35L46.8-28.35Q50.35-28.35 52.42-27.38 54.5-26.4 55.4-24.25 56.3-22.1 56.3-18.5L56.3-18.5 56.3-2.45 59.25-2.45 59.25-0.25Q58.25 0 56.72 0.25 55.2 0.5 54.05 0.5L54.05 0.5Q52.65 0.5 52.15 0.08 51.65-0.35 51.65-1.8L51.65-1.8 51.65-3.45Q50.15-1.95 47.97-0.7 45.8 0.55 43.05 0.55L43.05 0.55Q39.45 0.55 37.07-1.53 34.7-3.6 34.7-7.5L34.7-7.5ZM45.2-2.85Q46.5-2.85 48.2-3.65 49.9-4.45 51.3-5.55L51.3-5.55 51.3-14.15Q45.85-14.15 43.07-12.48 40.3-10.8 40.3-8.1L40.3-8.1Q40.3-5.4 41.62-4.13 42.95-2.85 45.2-2.85L45.2-2.85ZM71.3 0.5Q68.45 0.5 67.05-0.8 65.65-2.1 65.65-5.25L65.65-5.25 65.65-24.45 62.05-24.45 62.05-26.7Q62.3-26.75 63.45-27.05 64.59-27.35 65-27.6L65-27.6Q65.8-28.05 66.25-29.4L66.25-29.4Q66.65-30.35 67.2-32.45 67.75-34.55 67.84-34.95L67.84-34.95 70.8-34.95 70.9-27.75 79.25-27.75 79.25-24.45 70.9-24.45 70.9-9.1Q70.9-6.25 71.07-5.1 71.25-3.95 71.82-3.6 72.4-3.25 73.8-3.25L73.8-3.25Q75.15-3.25 76.77-3.6 78.4-3.95 79.3-4.35L79.3-4.35 80.05-2.1Q78.84-1.2 76.17-0.35 73.5 0.5 71.3 0.5L71.3 0.5ZM83.19 0L83.19-2.45 86.94-2.75 86.94-23.9 83.34-24.8 83.34-27.5 90.24-28.4 90.34-28.4 91.44-27.5 91.44-26.6 91.29-22.7 91.44-22.7Q91.94-23.55 93.24-24.9 94.54-26.25 96.59-27.38 98.64-28.5 101.04-28.5L101.04-28.5Q102.04-28.5 102.69-28.25L102.69-28.25 102.69-22.65Q102.34-22.9 101.57-23.13 100.79-23.35 99.84-23.35L99.84-23.35Q95.69-23.35 92.14-20.8L92.14-20.8 92.14-2.8 98.49-2.4 98.49 0 83.19 0ZM111.89-32.75Q110.29-32.75 109.49-33.65 108.69-34.55 108.69-35.95L108.69-35.95Q108.69-37.55 109.67-38.6 110.64-39.65 112.34-39.65L112.34-39.65Q114.04-39.65 114.84-38.75 115.64-37.85 115.64-36.45L115.64-36.45Q115.64-34.75 114.67-33.75 113.69-32.75 111.94-32.75L111.94-32.75 111.89-32.75ZM109.89-2.9L109.89-23.9 106.09-24.8 106.09-27.45 113.84-28.4 113.94-28.4 115.09-27.5 115.09-2.85 119.09-2.45 119.09 0 105.84 0 105.84-2.45 109.89-2.9ZM122.04-13.7Q122.04-17.85 123.66-21.2 125.29-24.55 128.46-26.53 131.64-28.5 136.09-28.5L136.09-28.5Q138.24-28.5 139.79-28.1 141.34-27.7 143.49-27L143.49-27 143.29-19.3 140.04-19.3 138.94-24.4Q138.64-25.8 135.14-25.8L135.14-25.8Q131.64-25.8 129.61-22.98 127.59-20.15 127.59-14.95L127.59-14.95Q127.59-9.05 129.86-5.98 132.14-2.9 135.79-2.9L135.79-2.9Q137.89-2.9 139.76-3.55 141.64-4.2 142.99-5.1L142.99-5.1 143.94-3.1Q142.59-1.7 139.96-0.58 137.34 0.55 134.64 0.55L134.64 0.55Q130.54 0.55 127.71-1.3 124.89-3.15 123.46-6.38 122.04-9.6 122.04-13.7L122.04-13.7ZM150.94-2.9L150.94-37.3 147.04-37.85 147.04-40 154.99-40.95 155.04-40.95 156.14-40.2 156.14-15.75 156.04-12.8 167.59-24.75 163.84-25.45 163.84-27.75 175.94-27.75 175.94-25.45 171.99-24.75 164.64-17.6 174.14-2.85 177.24-2.45 177.24 0 165.09 0 165.09-2.45 168.24-2.9 161.19-14.5 156.04-9.4 156.14-6.85 156.14-2.9 159.69-2.45 159.69 0 147.79 0 147.79-2.45 150.94-2.9ZM217.08 0Q216.23 0 214.91-2.02 213.58-4.05 211.13-8.4L211.13-8.4Q210.83-8.95 209.46-11.38 208.08-13.8 206.91-15.55 205.73-17.3 204.83-18.3L204.83-18.3 199.78-12.6 199.78-2.95 204.33-2.45 204.33 0 190.28 0 190.28-2.45 194.43-2.95 194.43-34.05 190.33-34.65 190.33-37.15 203.93-37.15 203.93-34.65 199.78-34.05 199.78-16.55 214.48-34.05 210.28-34.65 210.28-37.15 222.63-37.15 222.63-34.65 218.78-34.05 207.98-21.95Q209.73-20.45 211.71-17.6 213.68-14.75 216.53-10.25L216.53-10.25Q218.98-6.4 220.11-4.78 221.23-3.15 221.88-3L221.88-3 224.23-2.45 224.23 0 217.08 0ZM232.33-32.75Q230.73-32.75 229.93-33.65 229.13-34.55 229.13-35.95L229.13-35.95Q229.13-37.55 230.1-38.6 231.08-39.65 232.78-39.65L232.78-39.65Q234.48-39.65 235.28-38.75 236.08-37.85 236.08-36.45L236.08-36.45Q236.08-34.75 235.1-33.75 234.13-32.75 232.38-32.75L232.38-32.75 232.33-32.75ZM230.33-2.9L230.33-23.9 226.53-24.8 226.53-27.45 234.28-28.4 234.38-28.4 235.53-27.5 235.53-2.85 239.53-2.45 239.53 0 226.28 0 226.28-2.45 230.33-2.9ZM243.03 0L243.03-2.45 246.08-2.9 246.08-23.9 242.48-24.8 242.48-27.5 249.63-28.4 250.53-27.75 250.83-25.75 250.78-24.15Q252.53-25.75 255.55-27.08 258.58-28.4 260.98-28.4L260.98-28.4Q263.68-28.4 265.33-27.5 266.98-26.6 267.83-24.7L267.83-24.7Q269.43-26.05 272.3-27.23 275.18-28.4 277.68-28.4L277.68-28.4Q280.78-28.4 282.53-27.23 284.28-26.05 285-23.58 285.73-21.1 285.73-16.95L285.73-16.95 285.73-2.9 289.33-2.45 289.33 0 277.43 0 277.43-2.45 280.53-2.9 280.53-16.8Q280.53-19.7 280.1-21.43 279.68-23.15 278.5-24 277.33-24.85 275.13-24.85L275.13-24.85Q273.48-24.85 271.63-24.13 269.78-23.4 268.48-22.4L268.48-22.4Q268.93-20.45 268.93-16.85L268.93-16.85 268.93-2.9 272.48-2.45 272.48 0 260.38 0 260.38-2.45 263.68-2.9 263.68-16.9Q263.68-19.9 263.3-21.55 262.93-23.2 261.88-24.03 260.83-24.85 258.68-24.85L258.68-24.85Q256.88-24.85 254.85-23.95 252.83-23.05 251.33-21.85L251.33-21.85 251.33-2.9 254.68-2.45 254.68 0 243.03 0Z" opacity="1" transform="matrix(1,0,0,1,0,0)" fill="#096a2e" class="wordmark-text-0" data-fill-palette-color="primary" id="text-0"></path></svg></g></svg></g></svg></g></svg></g></svg></g></svg></g></svg></g><path d="M215.558 99.925L215.558 36.756 389.246 36.756 389.246 210.444 215.558 210.444 215.558 147.275 218.746 147.275 218.746 207.256 386.058 207.256 386.058 39.944 218.746 39.944 218.746 99.925Z" fill="#096a2e" stroke="transparent" data-fill-palette-color="primary"></path></svg></g><defs></defs></svg><rect width="395.52" height="247.2" fill="none" stroke="none" visibility="hidden"></rect></g></svg></g></svg>